<?xml version="1.0" standalone="no"?><!DOCTYPE svg PUBLIC "-//W3C//DTD SVG 1.1//EN" "http://www.w3.org/Graphics/SVG/1.1/DTD/svg11.dtd"><svg class="icon" height="512" viewBox="0 0 1024 1024" version="1.1" xmlns="http://www.w3.org/2000/svg"><path d="M512 512m-512 0a512 512 0 1 0 1024 0 512 512 0 1 0-1024 0Z" fill="#88C5CC" /><path d="M603.344 778.504h0.04L576 693.328 504 688l-72 5.328-27.384 85.168h0.04c-0.408 1.168-0.656 2.36-0.656 3.544 0 17.648 44.776 31.944 100 31.944 55.216 0 100-14.296 100-31.944 0-1.184-0.248-2.368-0.656-3.536z" fill="#E6CBC3" /><path d="M603.344 778.504h0.04L576 693.328 504 688l-14 1.032 58 4.296 27.384 85.168h-0.04c0.408 1.176 0.656 2.36 0.656 3.552 0 16.128-37.424 29.424-86 31.6 4.584 0.192 9.232 0.344 14 0.344 55.216 0 100-14.296 100-31.944 0-1.192-0.248-2.376-0.656-3.544z" fill="#D9BFB8" /><path d="M712 336v-83.216C712 187.872 665.832 136 504 136s-208 51.872-208 116.784V336s-32 2.36-32 24v88.552c0 21.632 8 39.448 32 39.448 0 108.168 96.184 232 208 232s208-123.832 208-232c24 0 32-17.816 32-39.448V360c0-21.64-32-24-32-24z" fill="#FFE1D9" /><path d="M504 136c-4.096 0-8.056 0.056-12 0.128 152.096 2.528 196 53.392 196 116.656V488c0 104.28-89.4 223.064-196 231.488 3.984 0.312 7.976 0.512 12 0.512 111.816 0 208-123.832 208-232V252.784C712 187.872 665.832 136 504 136z" fill="#F2D6CE" /><path d="M504 136c-161.832 0-208 51.872-208 116.784V424c0.376-264 296.376-40 339.872-177.128C683.44 281.36 704.592 386.952 712 424v-171.216C712 187.872 665.832 136 504 136z" fill="#99602E" /><path d="M504 136c-4.08 0-8.04 0.056-11.976 0.128C644.096 138.656 688 189.512 688 252.784v78.952c12.744 36.232 20.2 73.264 24 92.264v-171.216C712 187.872 665.832 136 504 136z" fill="#8C582A" /><path d="M512 1024c126.232 0 241.728-45.784 331-121.512L632.376 784l-128 32-128-32L175 897.272C265.056 976.112 382.904 1024 512 1024z" fill="#E6E6E6" /><path d="M504.376 808l-88-72-40 48 64 112zM504.376 808l88-72 40 48-64 112z" fill="#F5F5F5" /><path d="M504.4 848m-40 0a40 40 0 1 0 80 0 40 40 0 1 0-80 0Z" fill="#242424" /><path d="M416.376 888v-80l72 40zM592.376 888v-80l-72 40z" fill="#242424" /><path d="M512 1024c128.128 0 245.16-47.168 334.96-124.96L704.376 824c0 70.696-89.528 152-200 152-110.464 0-200-81.304-200-152l-135.664 67.832C259.528 973.96 379.912 1024 512 1024z" fill="#242424" /><path d="M776 384h-32v-136c0-95.552-80.872-144-240.376-144C344.624 104 264 152.448 264 248v136h-32v-136c0-80.288 47.128-176 271.624-176C728.744 72 776 167.712 776 248v136z" fill="#263740" /><path d="M296 536h-72c-17.6 0-32-14.4-32-32v-136c0-17.6 14.4-32 32-32h72v200zM712 536h72c17.6 0 32-14.4 32-32v-136c0-17.6-14.4-32-32-32h-72v200z" fill="#263740" /><path d="M720 616h-128c-8.832 0-16-7.168-16-16s7.168-16 16-16h128c8.384 0 24 0 24-32v-40c0-8.832 7.168-16 16-16s16 7.168 16 16v40c0 40.672-20.408 64-56 64z" fill="#263740" /><path d="M608 608c0 13.2-10.8 24-24 24h-48c-13.2 0-24-10.8-24-24v-16c0-13.2 10.8-24 24-24h48c13.2 0 24 10.8 24 24v16z" fill="#263740" /></svg>